<svg shape-rendering="crispEdges" viewBox="0 -.5 16 16" xmlns="http://www.w3.org/2000/svg"><path d="m10 0h2m-3 1h2m-3 1h2m-3 1h4m-1 1h2" stroke="#046736"/><path d="m5 1h2m-2 1h3m2 0h1m-5 1h1m0 1h2m-2 1h3m-1 1h1" stroke="#40904c"/><path d="m3 2h2m6 0h1m-10 1h2m7 0h2m-12 1h4m4 0h1m2 0h1m-12 1h3m2 0h1m3 0h4m-14 1h5m1 0h3m1 0h4m-14 1h14m-14 1h14m-14 1h13m-13 1h13m-12 1h12m-12 1h12m-11 1h10m-9 1h8m-7 1h1" stroke="#db0201"/><path d="m12 2h1m0 1h1m-1 1h2m-1 1h1m-1 1h2m-2 1h2m-2 1h2m-3 1h3m-3 1h3m-3 1h2m-2 1h2m-3 1h2m-3 1h2m-8 1h7" stroke="#a00"/><path d="m4 3h2m-1 1h2m-3 1h2m-1 1h1" stroke="#9dc14b"/></svg>